G04 Layer: TopLayer*
G04 EasyEDA v6.3.22, 2020-02-16T12:15:52--5:00*
G04 381979cff6bd47818e4e504fc6c237e0,2cc9782d1759487288c44a1c2d283d62,10*
G04 Gerber Generator version 0.2*
G04 Scale: 100 percent, Rotated: No, Reflected: No *
G04 Dimensions in millimeters *
G04 leading zeros omitted , absolute positions ,3 integer and 3 decimal *
%FSLAX33Y33*%
%MOMM*%
G90*
G71D02*

%ADD11C,0.999998*%
%ADD12C,1.599997*%
%ADD13C,0.599999*%
%ADD14R,1.600200X1.999996*%
%ADD15R,2.999994X2.999994*%
%ADD16C,1.899996*%
%ADD17R,1.651000X1.651000*%
%ADD18C,1.651000*%
%ADD20C,1.193800*%
%ADD21C,1.879600*%
%ADD23C,1.905000*%
%ADD24R,1.524000X1.524000*%
%ADD25C,1.524000*%
%ADD26C,2.159000*%
%ADD27C,1.999996*%

%LPD*%
G54D11*
G01X73406Y47260D02*
G01X74422Y47260D01*
G01X75565Y46117D01*
G01X75565Y38688D01*
G01X79311Y34941D01*
G01X79311Y13986D02*
G01X74676Y18622D01*
G01X74676Y30306D01*
G01X79311Y34941D01*
G54D12*
G01X81851Y20336D02*
G01X84201Y22686D01*
G01X84201Y38942D01*
G01X81851Y41291D01*
G54D11*
G01X79311Y42561D02*
G01X79248Y42625D01*
G01X79248Y51324D01*
G01X77343Y53229D01*
G01X9017Y53229D01*
G01X7366Y51578D01*
G01X7239Y51578D01*
G01X7239Y51578D02*
G01X7239Y46943D01*
G01X7556Y46943D01*
G01X14859Y51578D02*
G01X15494Y50943D01*
G01X21260Y50943D01*
G01X21260Y50943D02*
G01X21209Y50892D01*
G01X21209Y49165D01*
G01X23431Y46943D01*
G01X24701Y46943D01*
G01X79311Y40021D02*
G01X77343Y41990D01*
G01X77343Y49546D01*
G01X75438Y51451D01*
G01X27305Y51451D01*
G01X26797Y50943D01*
G01X24460Y50943D01*
G01X54991Y30877D02*
G01X64389Y30877D01*
G01X69215Y35703D01*
G01X69215Y45609D01*
G01X73406Y49800D01*
G01X54991Y30877D02*
G01X52959Y30877D01*
G01X49657Y34179D01*
G01X24701Y7446D02*
G01X24638Y7382D01*
G01X24638Y4715D01*
G01X27940Y1413D01*
G01X68580Y1413D01*
G01X70231Y3064D01*
G01X70231Y3826D01*
G54D13*
G01X32766Y44720D02*
G01X32766Y47260D01*
G01X60071Y19066D02*
G01X60071Y27194D01*
G01X58674Y28591D01*
G01X52959Y28591D01*
G01X36830Y44720D01*
G01X32766Y44720D01*
G01X55118Y26178D02*
G01X52578Y26178D01*
G01X49632Y29124D01*
G01X45212Y29124D01*
G01X54991Y23257D02*
G01X52959Y23257D01*
G01X48372Y27844D01*
G01X45212Y27844D01*
G01X34671Y19066D02*
G01X34036Y19701D01*
G01X22225Y19701D01*
G01X18288Y23638D01*
G01X17145Y23638D01*
G01X44831Y19066D02*
G01X42799Y21098D01*
G01X22860Y21098D01*
G01X17780Y26178D01*
G01X17145Y26178D01*
G01X47371Y19066D02*
G01X44069Y22368D01*
G01X23368Y22368D01*
G01X17145Y28591D01*
G01X17145Y28718D01*
G01X54991Y19066D02*
G01X53086Y17161D01*
G01X17653Y17161D01*
G01X15113Y19701D01*
G01X15113Y29099D01*
G01X17145Y31131D01*
G01X17145Y31258D01*
G54D14*
G01X24459Y50943D03*
G01X21260Y50943D03*
G54D15*
G01X24701Y7446D03*
G01X7556Y46943D03*
G01X7556Y7446D03*
G01X24701Y46943D03*
G54D16*
G01X34671Y19066D03*
G01X37211Y19066D03*
G01X39751Y19066D03*
G01X42291Y19066D03*
G01X44831Y19066D03*
G01X47371Y19066D03*
G01X49911Y19066D03*
G01X52451Y19066D03*
G01X54991Y19066D03*
G01X57531Y19066D03*
G01X60071Y19066D03*
G01X62611Y19066D03*
G01X65151Y19066D03*
G01X67691Y19066D03*
G01X70231Y19066D03*
G01X34671Y3826D03*
G01X37211Y3826D03*
G01X39751Y3826D03*
G01X42291Y3826D03*
G01X44831Y3826D03*
G01X47371Y3826D03*
G01X49911Y3826D03*
G01X52451Y3826D03*
G01X54991Y3826D03*
G01X57531Y3826D03*
G01X60071Y3826D03*
G01X62611Y3826D03*
G01X65151Y3826D03*
G01X67691Y3826D03*
G01X70231Y3826D03*
G54D17*
G01X18288Y3191D03*
G54D18*
G01X15748Y3191D03*
G01X13208Y3191D03*
G36*
G01X34709Y26996D02*
G01X33109Y26996D01*
G01X33109Y26106D01*
G01X34709Y26106D01*
G01X34709Y26996D01*
G37*
G36*
G01X34709Y25710D02*
G01X33108Y25710D01*
G01X33108Y24820D01*
G01X34709Y24820D01*
G01X34709Y25710D01*
G37*
G36*
G01X34709Y28289D02*
G01X33108Y28289D01*
G01X33108Y27399D01*
G01X34709Y27399D01*
G01X34709Y28289D01*
G37*
G36*
G01X34709Y29569D02*
G01X33108Y29569D01*
G01X33108Y28679D01*
G01X34709Y28679D01*
G01X34709Y29569D01*
G37*
G36*
G01X46012Y25710D02*
G01X44411Y25710D01*
G01X44411Y24820D01*
G01X46012Y24820D01*
G01X46012Y25710D01*
G37*
G36*
G01X46012Y26996D02*
G01X44412Y26996D01*
G01X44412Y26106D01*
G01X46012Y26106D01*
G01X46012Y26996D01*
G37*
G36*
G01X46012Y28289D02*
G01X44411Y28289D01*
G01X44411Y27399D01*
G01X46012Y27399D01*
G01X46012Y28289D01*
G37*
G36*
G01X46012Y29569D02*
G01X44411Y29569D01*
G01X44411Y28679D01*
G01X46012Y28679D01*
G01X46012Y29569D01*
G37*
G54D20*
G01X49657Y34179D03*
G01X49657Y36719D03*
G54D21*
G01X38608Y11827D03*
G01X28448Y11827D03*
G01X55118Y26178D03*
G01X65278Y26178D03*
G01X55118Y23257D03*
G01X65278Y23257D03*
G01X34290Y34814D03*
G01X44450Y34814D03*
G36*
G01X56240Y36958D02*
G01X56240Y34957D01*
G01X53741Y34957D01*
G01X53741Y36958D01*
G01X56240Y36958D01*
G37*
G01X38608Y9033D03*
G01X28448Y9033D03*
G01X28448Y14621D03*
G01X38608Y14621D03*
G54D23*
G01X7239Y51578D03*
G01X14859Y51578D03*
G54D12*
G01X24765Y31258D03*
G01X24765Y28718D03*
G01X24765Y26178D03*
G01X24765Y23638D03*
G01X17145Y23638D03*
G01X17145Y26178D03*
G01X17145Y28718D03*
G01X17145Y31258D03*
G54D24*
G01X81851Y33671D03*
G54D25*
G01X79311Y34941D03*
G01X81851Y36211D03*
G01X79311Y37481D03*
G01X81851Y38751D03*
G01X79311Y40021D03*
G01X81851Y41291D03*
G01X79311Y42561D03*
G54D26*
G01X91526Y30115D03*
G01X91526Y46117D03*
G54D24*
G01X81851Y12716D03*
G54D25*
G01X79311Y13986D03*
G01X81851Y15256D03*
G01X79311Y16526D03*
G01X81851Y17796D03*
G01X79311Y19066D03*
G01X81851Y20336D03*
G01X79311Y21606D03*
G54D26*
G01X91526Y9160D03*
G01X91526Y25162D03*
G54D25*
G01X32766Y42180D03*
G01X32766Y44720D03*
G01X32766Y47260D03*
G01X32766Y49800D03*
G01X73406Y42180D03*
G01X73406Y44720D03*
G01X73406Y47260D03*
G01X73406Y49800D03*
G54D27*
G01X55240Y30877D02*
G01X54741Y30877D01*
G01X55240Y33417D02*
G01X54741Y33417D01*
M00*
M02*
