G04 Layer: BottomSilkLayer*
G04 EasyEDA v6.3.22, 2020-02-16T12:15:52--5:00*
G04 381979cff6bd47818e4e504fc6c237e0,2cc9782d1759487288c44a1c2d283d62,10*
G04 Gerber Generator version 0.2*
G04 Scale: 100 percent, Rotated: No, Reflected: No *
G04 Dimensions in millimeters *
G04 leading zeros omitted , absolute positions ,3 integer and 3 decimal *
%FSLAX33Y33*%
%MOMM*%
G90*
G71D02*

%ADD10C,0.254000*%
%ADD31C,0.203200*%
%ADD32C,0.152400*%
%ADD33C,0.100000*%

%LPD*%
G54D10*
G01X17975Y32538D02*
G01X17984Y22339D01*
G01X17983Y32547D02*
G01X23983Y32547D01*
G01X19414Y29208D02*
G01X22864Y29208D01*
G01X22864Y28158D01*
G01X19444Y28158D01*
G01X19414Y28158D01*
G01X19414Y29208D01*
G01X19392Y26717D02*
G01X22842Y26717D01*
G01X22842Y25667D01*
G01X19422Y25667D01*
G01X19392Y25667D01*
G01X19392Y26717D01*
G01X19384Y24166D02*
G01X22834Y24166D01*
G01X22834Y23116D01*
G01X19414Y23116D01*
G01X19384Y23116D01*
G01X19384Y24166D01*
G01X19422Y31768D02*
G01X22872Y31768D01*
G01X22872Y30718D01*
G01X19452Y30718D01*
G01X19422Y30718D01*
G01X19422Y31768D01*
G01X20133Y31640D02*
G01X20133Y30770D01*
G01X20912Y31661D02*
G01X20912Y30791D01*
G01X20133Y31670D02*
G01X20883Y30920D01*
G01X20913Y30920D01*
G01X20913Y31460D02*
G01X20643Y31730D01*
G01X20133Y31070D02*
G01X20373Y30830D01*
G01X20373Y30800D01*
G01X22083Y31640D02*
G01X22083Y30770D01*
G01X20163Y29130D02*
G01X20163Y28260D01*
G01X20942Y29151D02*
G01X20942Y28281D01*
G01X20163Y29160D02*
G01X20913Y28410D01*
G01X20943Y28410D01*
G01X20943Y28950D02*
G01X20673Y29220D01*
G01X20163Y28560D02*
G01X20403Y28320D01*
G01X20403Y28290D01*
G01X22113Y29130D02*
G01X22113Y28260D01*
G01X20163Y26568D02*
G01X20163Y25698D01*
G01X20942Y26589D02*
G01X20942Y25719D01*
G01X20163Y26598D02*
G01X20913Y25848D01*
G01X20943Y25848D01*
G01X20943Y26388D02*
G01X20673Y26658D01*
G01X20163Y25998D02*
G01X20403Y25758D01*
G01X20403Y25728D01*
G01X22113Y26568D02*
G01X22113Y25698D01*
G01X20163Y24058D02*
G01X20163Y23188D01*
G01X20942Y24079D02*
G01X20942Y23209D01*
G01X20163Y24088D02*
G01X20913Y23338D01*
G01X20943Y23338D01*
G01X20943Y23878D02*
G01X20673Y24148D01*
G01X20163Y23488D02*
G01X20403Y23248D01*
G01X20403Y23218D01*
G01X22113Y24058D02*
G01X22113Y23188D01*
G01X20194Y32509D02*
G01X20194Y32209D01*
G01X22048Y32209D01*
G01X22048Y32484D01*
G01X24005Y32538D02*
G01X24005Y22339D01*
G01X17984Y22339D02*
G01X23984Y22339D01*
G54D31*
G01X37037Y26833D02*
G01X37082Y26924D01*
G01X37173Y27015D01*
G01X37264Y27061D01*
G01X37446Y27061D01*
G01X37537Y27015D01*
G01X37628Y26924D01*
G01X37673Y26833D01*
G01X37719Y26697D01*
G01X37719Y26470D01*
G01X37673Y26333D01*
G01X37628Y26242D01*
G01X37537Y26151D01*
G01X37446Y26106D01*
G01X37264Y26106D01*
G01X37173Y26151D01*
G01X37082Y26242D01*
G01X37037Y26333D01*
G01X37037Y26470D01*
G01X37264Y26470D02*
G01X37037Y26470D01*
G01X36737Y27061D02*
G01X36737Y26106D01*
G01X36737Y27061D02*
G01X36100Y26106D01*
G01X36100Y27061D02*
G01X36100Y26106D01*
G01X35800Y27061D02*
G01X35800Y26106D01*
G01X35800Y27061D02*
G01X35482Y27061D01*
G01X35346Y27015D01*
G01X35255Y26924D01*
G01X35209Y26833D01*
G01X35164Y26697D01*
G01X35164Y26470D01*
G01X35209Y26333D01*
G01X35255Y26242D01*
G01X35346Y26151D01*
G01X35482Y26106D01*
G01X35800Y26106D01*
G01X48340Y26833D02*
G01X48385Y26924D01*
G01X48476Y27015D01*
G01X48567Y27061D01*
G01X48749Y27061D01*
G01X48840Y27015D01*
G01X48931Y26924D01*
G01X48976Y26833D01*
G01X49022Y26697D01*
G01X49022Y26470D01*
G01X48976Y26333D01*
G01X48931Y26242D01*
G01X48840Y26151D01*
G01X48749Y26106D01*
G01X48567Y26106D01*
G01X48476Y26151D01*
G01X48385Y26242D01*
G01X48340Y26333D01*
G01X48340Y26470D01*
G01X48567Y26470D02*
G01X48340Y26470D01*
G01X48040Y27061D02*
G01X48040Y26106D01*
G01X48040Y27061D02*
G01X47403Y26106D01*
G01X47403Y27061D02*
G01X47403Y26106D01*
G01X47103Y27061D02*
G01X47103Y26106D01*
G01X47103Y27061D02*
G01X46785Y27061D01*
G01X46649Y27015D01*
G01X46558Y26924D01*
G01X46512Y26833D01*
G01X46467Y26697D01*
G01X46467Y26470D01*
G01X46512Y26333D01*
G01X46558Y26242D01*
G01X46649Y26151D01*
G01X46785Y26106D01*
G01X47103Y26106D01*
G54D32*
G01X28702Y27869D02*
G01X28702Y26777D01*
G01X28702Y27869D02*
G01X28338Y27869D01*
G01X28181Y27816D01*
G01X28079Y27714D01*
G01X28026Y27610D01*
G01X27975Y27452D01*
G01X27975Y27193D01*
G01X28026Y27038D01*
G01X28079Y26934D01*
G01X28181Y26830D01*
G01X28338Y26777D01*
G01X28702Y26777D01*
G01X27632Y27661D02*
G01X27528Y27714D01*
G01X27371Y27869D01*
G01X27371Y26777D01*
G01X52197Y28758D02*
G01X52197Y27666D01*
G01X52197Y28758D02*
G01X51833Y28758D01*
G01X51676Y28705D01*
G01X51574Y28603D01*
G01X51521Y28499D01*
G01X51470Y28341D01*
G01X51470Y28082D01*
G01X51521Y27927D01*
G01X51574Y27823D01*
G01X51676Y27719D01*
G01X51833Y27666D01*
G01X52197Y27666D01*
G01X51074Y28499D02*
G01X51074Y28550D01*
G01X51023Y28654D01*
G01X50970Y28705D01*
G01X50866Y28758D01*
G01X50660Y28758D01*
G01X50556Y28705D01*
G01X50502Y28654D01*
G01X50452Y28550D01*
G01X50452Y28445D01*
G01X50502Y28341D01*
G01X50606Y28186D01*
G01X51127Y27666D01*
G01X50398Y27666D01*
G01X20973Y35611D02*
G01X20869Y35715D01*
G01X20817Y35871D01*
G01X20817Y36079D01*
G01X20869Y36235D01*
G01X20973Y36338D01*
G01X21077Y36338D01*
G01X21181Y36287D01*
G01X21233Y36235D01*
G01X21285Y36131D01*
G01X21389Y35819D01*
G01X21441Y35715D01*
G01X21493Y35663D01*
G01X21596Y35611D01*
G01X21752Y35611D01*
G01X21856Y35715D01*
G01X21908Y35871D01*
G01X21908Y36079D01*
G01X21856Y36235D01*
G01X21752Y36338D01*
G01X20817Y35268D02*
G01X21908Y35008D01*
G01X20817Y34749D02*
G01X21908Y35008D01*
G01X20817Y34749D02*
G01X21908Y34489D01*
G01X20817Y34229D02*
G01X21908Y34489D01*
G01X21025Y33886D02*
G01X20973Y33782D01*
G01X20817Y33626D01*
G01X21908Y33626D01*
G54D33*
G01X23291Y31355D02*
G01X23268Y31309D01*
G01X23202Y31241D01*
G01X23680Y31241D01*
G01X23304Y28805D02*
G01X23281Y28805D01*
G01X23238Y28782D01*
G01X23215Y28759D01*
G01X23192Y28713D01*
G01X23192Y28622D01*
G01X23215Y28579D01*
G01X23238Y28556D01*
G01X23281Y28533D01*
G01X23327Y28533D01*
G01X23373Y28556D01*
G01X23441Y28602D01*
G01X23670Y28828D01*
G01X23670Y28510D01*
G01X23192Y26323D02*
G01X23192Y26074D01*
G01X23373Y26209D01*
G01X23373Y26143D01*
G01X23395Y26097D01*
G01X23418Y26074D01*
G01X23487Y26051D01*
G01X23533Y26051D01*
G01X23601Y26074D01*
G01X23647Y26120D01*
G01X23670Y26186D01*
G01X23670Y26255D01*
G01X23647Y26323D01*
G01X23624Y26346D01*
G01X23578Y26369D01*
G01X18318Y31721D02*
G01X18356Y31794D01*
G01X18427Y31866D01*
G01X18501Y31904D01*
G01X18610Y31939D01*
G01X18790Y31939D01*
G01X18900Y31904D01*
G01X18973Y31866D01*
G01X19047Y31794D01*
G01X19083Y31721D01*
G01X19083Y31576D01*
G01X19047Y31502D01*
G01X18973Y31431D01*
G01X18900Y31393D01*
G01X18790Y31358D01*
G01X18610Y31358D01*
G01X18501Y31393D01*
G01X18427Y31431D01*
G01X18356Y31502D01*
G01X18318Y31576D01*
G01X18318Y31721D01*
G01X18318Y31116D02*
G01X19083Y31116D01*
G01X18318Y31116D02*
G01X19083Y30608D01*
G01X18318Y30608D02*
G01X19083Y30608D01*
G01X23213Y23674D02*
G01X23530Y23905D01*
G01X23530Y23560D01*
G01X23213Y23674D02*
G01X23690Y23674D01*
G54D10*
G75*
G01X38909Y27195D02*
G03X38909Y27195I-5000J0D01*
G01*
G75*
G01X50212Y27195D02*
G03X50212Y27195I-5000J0D01*
G01*
M00*
M02*
