;Layer: Drill PTH
;EasyEDA v6.3.22, 2020-02-16T12:15:52--5:00
;381979cff6bd47818e4e504fc6c237e0,2cc9782d1759487288c44a1c2d283d62,10
;Gerber Generator version 0.2
M48
METRIC,LZ,000.000
;Holesize 1 = 0.712 METRIC
T01C0.712
;Holesize 2 = 0.761 METRIC
T02C0.761
;Holesize 3 = 0.889 METRIC
T03C0.889
;Holesize 4 = 0.900 METRIC
T04C0.900
;Holesize 5 = 0.901 METRIC
T05C0.901
;Holesize 6 = 0.915 METRIC
T06C0.915
;Holesize 7 = 1.000 METRIC
T07C1.000
;Holesize 8 = 1.101 METRIC
T08C1.101
;Holesize 9 = 1.400 METRIC
T09C1.400
;Holesize 10 = 1.651 METRIC
T10C1.651
%
G05
G90
T01
X+049657Y+034179
X+049657Y+036719
T02
X+033909Y+026551
X+033909Y+025265
X+033909Y+027844
X+033909Y+029124
X+045212Y+025265
X+045212Y+026551
X+045212Y+027844
X+045212Y+029124
T03
X+018288Y+003191
X+015748Y+003191
X+013208Y+003191
T04
X+038608Y+011827
X+028448Y+011827
X+055118Y+026178
X+065278Y+026178
X+055118Y+023257
X+065278Y+023257
X+034290Y+034814
X+044450Y+034814
X+038608Y+009033
X+028448Y+009033
X+028448Y+014621
X+038608Y+014621
T05
X+034670Y+019067
X+037210Y+019067
X+039750Y+019067
X+042290Y+019067
X+044830Y+019067
X+047370Y+019067
X+049910Y+019067
X+052450Y+019067
X+054990Y+019067
X+057530Y+019067
X+060070Y+019067
X+062610Y+019067
X+065150Y+019067
X+067690Y+019067
X+070230Y+019067
X+034670Y+003827
X+037210Y+003827
X+039750Y+003827
X+042290Y+003827
X+044830Y+003827
X+047370Y+003827
X+049910Y+003827
X+052450Y+003827
X+054990Y+003827
X+057530Y+003827
X+060070Y+003827
X+062610Y+003827
X+065150Y+003827
X+067690Y+003827
X+070230Y+003827
X+081851Y+033671
X+079311Y+034941
X+081851Y+036211
X+079311Y+037481
X+081851Y+038751
X+079311Y+040021
X+081851Y+041291
X+079311Y+042561
X+081851Y+012716
X+079311Y+013986
X+081851Y+015256
X+079311Y+016526
X+081851Y+017796
X+079311Y+019066
X+081851Y+020336
X+079311Y+021606
T06
X+032766Y+042180
X+032766Y+044720
X+032766Y+047260
X+032766Y+049800
X+073406Y+042180
X+073406Y+044720
X+073406Y+047260
X+073406Y+049800
T07
X+024701Y+007446
X+007556Y+046943
X+007556Y+007446
X+024701Y+046943
X+024765Y+031258
X+024765Y+028718
X+024765Y+026178
X+024765Y+023638
X+017145Y+023638
X+017145Y+026178
X+017145Y+028718
X+017145Y+031258
T08
X+007239Y+051578
X+014859Y+051578
T09
X+054991Y+035957
X+054991Y+030877
X+054991Y+033417
T10
X+091526Y+030115
X+091526Y+046117
X+091526Y+009160
X+091526Y+025162
M30
